<svg width="2938" height="1696" viewBox="0 0 2938 1696" fill="none" xmlns="http://www.w3.org/2000/svg">
<g clip-path="url(#clip0_1138_497)">
<path d="M1086 92H1800V251H1086V92Z" fill="url(#paint0_linear_1138_497)"/>
<path d="M1248 1623H1051V1308.5H747V1622H553V858H747V1131.5H1051V856H1248V1623ZM747 92C829 181.5 909.5 202 909.5 106L920.5 92H1034.5L1051 106V380.5L1034.5 395H920.5L909.5 386C895.5 320 815.253 280.141 747 342.5V603.5H1051V766H747V829H553C536.984 829 524 841.984 524 858V1622H464.5V342.5C364 258.5 169.5 377.5 96.5 466L55 430C159.15 225.403 321 92 489 92H747Z" fill="url(#paint1_linear_1138_497)"/>
<path d="M1676.03 1625.18C1560.74 1625.18 1470.88 1594.04 1406.44 1531.74C1342 1469.45 1309.78 1382.09 1309.78 1269.68V856.17H1563.25V1262.16C1563.25 1319.44 1573.63 1360.25 1594.4 1384.6C1615.16 1408.23 1643.09 1420.04 1678.17 1420.04C1713.97 1420.04 1741.9 1408.23 1761.95 1384.6C1782.71 1360.25 1793.1 1319.44 1793.1 1262.16V856.17H2042.27V1269.68C2042.27 1382.09 2010.05 1469.45 1945.61 1531.74C1881.17 1594.04 1791.31 1625.18 1676.03 1625.18ZM2094.02 1608V856.17H2495.71C2599.54 856.17 2676.15 874.786 2725.56 912.02C2774.96 948.537 2799.67 995.437 2799.67 1052.72C2799.67 1090.67 2788.93 1124.68 2767.45 1154.75C2746.68 1184.11 2716.25 1207.38 2676.15 1224.57C2636.05 1241.75 2586.65 1250.34 2527.93 1250.34L2549.42 1192.35C2608.13 1192.35 2658.61 1200.58 2700.86 1217.05C2743.82 1233.52 2776.75 1257.5 2799.67 1289.01C2823.3 1319.8 2835.11 1357.03 2835.11 1400.71C2835.11 1465.87 2807.9 1516.71 2753.48 1553.22C2699.78 1589.74 2621.02 1608 2517.19 1608H2094.02ZM2343.2 1430.78H2495.71C2523.64 1430.78 2544.4 1425.77 2558.01 1415.75C2572.33 1405.72 2579.49 1391.04 2579.49 1371.71C2579.49 1352.38 2572.33 1337.7 2558.01 1327.67C2544.4 1317.65 2523.64 1312.64 2495.71 1312.64H2326.01V1145.09H2461.34C2489.98 1145.09 2510.75 1140.43 2523.64 1131.12C2537.24 1121.1 2544.05 1107.14 2544.05 1089.24C2544.05 1070.62 2537.24 1056.66 2523.64 1047.35C2510.75 1038.04 2489.98 1033.39 2461.34 1033.39H2343.2V1430.78Z" fill="#FEE065"/>
<path d="M1676.03 1625.18C1560.74 1625.18 1470.88 1594.04 1406.44 1531.74C1342 1469.45 1309.78 1382.09 1309.78 1269.68V856.17H1563.25V1262.16C1563.25 1319.44 1573.63 1360.25 1594.4 1384.6C1615.16 1408.23 1643.09 1420.04 1678.17 1420.04C1713.97 1420.04 1741.9 1408.23 1761.95 1384.6C1782.71 1360.25 1793.1 1319.44 1793.1 1262.16V856.17H2042.27V1269.68C2042.27 1382.09 2010.05 1469.45 1945.61 1531.74C1881.17 1594.04 1791.31 1625.18 1676.03 1625.18ZM2094.02 1608V856.17H2495.71C2599.54 856.17 2676.15 874.786 2725.56 912.02C2774.96 948.537 2799.67 995.437 2799.67 1052.72C2799.67 1090.67 2788.93 1124.68 2767.45 1154.75C2746.68 1184.11 2716.25 1207.38 2676.15 1224.57C2636.05 1241.75 2586.65 1250.34 2527.93 1250.34L2549.42 1192.35C2608.13 1192.35 2658.61 1200.58 2700.86 1217.05C2743.82 1233.52 2776.75 1257.5 2799.67 1289.01C2823.3 1319.8 2835.11 1357.03 2835.11 1400.71C2835.11 1465.87 2807.9 1516.71 2753.48 1553.22C2699.78 1589.74 2621.02 1608 2517.19 1608H2094.02ZM2343.2 1430.78H2495.71C2523.64 1430.78 2544.4 1425.77 2558.01 1415.75C2572.33 1405.72 2579.49 1391.04 2579.49 1371.71C2579.49 1352.38 2572.33 1337.7 2558.01 1327.67C2544.4 1317.65 2523.64 1312.64 2495.71 1312.64H2326.01V1145.09H2461.34C2489.98 1145.09 2510.75 1140.43 2523.64 1131.12C2537.24 1121.1 2544.05 1107.14 2544.05 1089.24C2544.05 1070.62 2537.24 1056.66 2523.64 1047.35C2510.75 1038.04 2489.98 1033.39 2461.34 1033.39H2343.2V1430.78Z" fill="url(#paint2_linear_1138_497)"/>
<path d="M1085.91 765V287.137H1247.02V765H1085.91ZM1273.7 765L1486.69 467.36L1486 579.999L1279.84 287.137H1460.75L1580.89 464.629L1503.75 465.312L1621.17 287.137H1794.57L1588.4 573.855V461.898L1804.81 765H1620.49L1500.34 579.316L1574.75 578.633L1457.33 765H1273.7Z" fill="#FEE065"/>
<path d="M1085.91 765V287.137H1247.02V765H1085.91ZM1273.7 765L1486.69 467.36L1486 579.999L1279.84 287.137H1460.75L1580.89 464.629L1503.75 465.312L1621.17 287.137H1794.57L1588.4 573.855V461.898L1804.81 765H1620.49L1500.34 579.316L1574.75 578.633L1457.33 765H1273.7Z" fill="url(#paint3_linear_1138_497)"/>
<path d="M1913.75 765V92.5808H2140.46V765H1913.75Z" fill="url(#paint4_linear_1138_497)"/>
<path d="M2369.25 765V268.37H2172.33V92.5808H2792.87V268.37H2595.95V765H2369.25Z" fill="#FEE065"/>
<path d="M2369.25 765V268.37H2172.33V92.5808H2792.87V268.37H2595.95V765H2369.25Z" fill="url(#paint5_linear_1138_497)"/>
</g>
<defs>
<linearGradient id="paint0_linear_1138_497" x1="979.317" y1="36.668" x2="2846.9" y2="1858.32" gradientUnits="userSpaceOnUse">
<stop stop-color="#00BF63"/>
<stop offset="0.272416" stop-color="#8CD7AA"/>
<stop offset="0.644231" stop-color="#8CD7AA"/>
<stop offset="1" stop-color="#FFDE59"/>
</linearGradient>
<linearGradient id="paint1_linear_1138_497" x1="408.5" y1="20" x2="793" y2="2027" gradientUnits="userSpaceOnUse">
<stop stop-color="#FFDE59"/>
<stop offset="1" stop-color="white"/>
</linearGradient>
<linearGradient id="paint2_linear_1138_497" x1="757.543" y1="-2036.56" x2="2360.54" y2="2221.36" gradientUnits="userSpaceOnUse">
<stop stop-color="white"/>
<stop offset="0.771148" stop-color="#8CD7AA"/>
<stop offset="1" stop-color="#00BF63"/>
</linearGradient>
<linearGradient id="paint3_linear_1138_497" x1="814.194" y1="-1551.45" x2="2066.65" y2="898.064" gradientUnits="userSpaceOnUse">
<stop stop-color="white"/>
<stop offset="0.771148" stop-color="#8CD7AA"/>
<stop offset="1" stop-color="#00BF63"/>
</linearGradient>
<linearGradient id="paint4_linear_1138_497" x1="1759.5" y1="-330.5" x2="2157" y2="1460.5" gradientUnits="userSpaceOnUse">
<stop stop-color="#FEE065"/>
<stop offset="1" stop-color="white"/>
</linearGradient>
<linearGradient id="paint5_linear_1138_497" x1="1973.53" y1="-2494.97" x2="4124.04" y2="1.24378" gradientUnits="userSpaceOnUse">
<stop stop-color="white"/>
<stop offset="0.771148" stop-color="#8CD7AA"/>
<stop offset="1" stop-color="#00BF63"/>
</linearGradient>
<clipPath id="clip0_1138_497">
<rect width="2938" height="1696" fill="white"/>
</clipPath>
</defs>
</svg>
